<?xml version="1.0" encoding="UTF-8" standalone="no"?><svg xmlns="http://www.w3.org/2000/svg" xmlns:xlink="http://www.w3.org/1999/xlink" contentScriptType="application/ecmascript" contentStyleType="text/css" height="747px" preserveAspectRatio="none" style="width:806px;height:747px;background:#FFFFFF;" version="1.1" viewBox="0 0 806 747" width="806px" zoomAndPan="magnify"><defs><filter height="300%" id="fklbqzc6nn6ei" width="300%" x="-1" y="-1"><feGaussianBlur result="blurOut" stdDeviation="2.0"/><feColorMatrix in="blurOut" result="blurOut2" type="matrix" values="0 0 0 0 0 0 0 0 0 0 0 0 0 0 0 0 0 0 .4 0"/><feOffset dx="4.0" dy="4.0" in="blurOut2" result="blurOut3"/><feBlend in="SourceGraphic" in2="blurOut3" mode="normal"/></filter></defs><g><!--MD5=[1f67e8801336723dc06e2b95a190f0a5]
entity G--><ellipse cx="221.12" cy="44" fill="#FEFECE" filter="url(#fklbqzc6nn6ei)" rx="16" ry="16" style="stroke:#A80036;stroke-width:1.5;"/><path d="M221.12,64 C225.12,64 228.12,64 232.12,60 C240.12,60 248.12,68 248.12,76 L248.12,80 C248.12,84 244.12,88 240.12,88 L202.12,88 C198.12,88 194.12,84 194.12,80 L194.12,76 C194.12,68 202.12,60 210.12,60 C214.12,64 217.12,64 221.12,64 " fill="#FEFECE" filter="url(#fklbqzc6nn6ei)" style="stroke:#A80036;stroke-width:1.5;"/><text fill="#000000" font-family="sans-serif" font-size="14" lengthAdjust="spacing" textLength="65" x="188.62" y="104.0332">Guichetier</text><!--MD5=[16fab723be418f7eaf2ea4bd895a8e51]
entity C--><ellipse cx="476.62" cy="44" fill="#FEFECE" filter="url(#fklbqzc6nn6ei)" rx="16" ry="16" style="stroke:#A80036;stroke-width:1.5;"/><path d="M476.62,64 C480.62,64 483.62,64 487.62,60 C495.62,60 503.62,68 503.62,76 L503.62,80 C503.62,84 499.62,88 495.62,88 L457.62,88 C453.62,88 449.62,84 449.62,80 L449.62,76 C449.62,68 457.62,60 465.62,60 C469.62,64 472.62,64 476.62,64 " fill="#FEFECE" filter="url(#fklbqzc6nn6ei)" style="stroke:#A80036;stroke-width:1.5;"/><text fill="#000000" font-family="sans-serif" font-size="14" lengthAdjust="spacing" textLength="92" x="430.62" y="104.0332">Chef d'agence</text><ellipse cx="220.8716" cy="716.9503" fill="#FEFECE" filter="url(#fklbqzc6nn6ei)" rx="82.7516" ry="18.9503" style="stroke:#A80036;stroke-width:1.5;"/><text fill="#000000" font-family="sans-serif" font-size="14" lengthAdjust="spacing" textLength="121" x="160.3716" y="720.6788">Modifier infos client</text><ellipse cx="221.1902" cy="641.114" fill="#FEFECE" filter="url(#fklbqzc6nn6ei)" rx="96.0702" ry="21.614" style="stroke:#A80036;stroke-width:1.5;"/><text fill="#000000" font-family="sans-serif" font-size="14" lengthAdjust="spacing" textLength="152" x="145.1902" y="644.8426">Créer un nouveau client</text><ellipse cx="221.0861" cy="563.7932" fill="#FEFECE" filter="url(#fklbqzc6nn6ei)" rx="86.9661" ry="19.7932" style="stroke:#A80036;stroke-width:1.5;"/><text fill="#000000" font-family="sans-serif" font-size="14" lengthAdjust="spacing" textLength="131" x="155.5861" y="567.5217">Consulter un compte</text><ellipse cx="221.3087" cy="490.0377" fill="#FEFECE" filter="url(#fklbqzc6nn6ei)" rx="80.6887" ry="18.5377" style="stroke:#A80036;stroke-width:1.5;"/><text fill="#000000" font-family="sans-serif" font-size="14" lengthAdjust="spacing" textLength="116" x="162.6215" y="493.9661">Débiter un compte</text><ellipse cx="220.9649" cy="412.769" fill="#FEFECE" filter="url(#fklbqzc6nn6ei)" rx="101.8449" ry="22.769" style="stroke:#A80036;stroke-width:1.5;"/><text fill="#000000" font-family="sans-serif" font-size="14" lengthAdjust="spacing" textLength="165" x="138.4649" y="416.4975">Créer un nouveau compte</text><ellipse cx="220.9016" cy="321.7563" fill="#FEFECE" filter="url(#fklbqzc6nn6ei)" rx="149.2816" ry="32.2563" style="stroke:#A80036;stroke-width:1.5;"/><text fill="#000000" font-family="sans-serif" font-size="14" lengthAdjust="spacing" textLength="267" x="87.4016" y="325.4848">Effectuer un virement de compte à compte</text><ellipse cx="220.8716" cy="234.9503" fill="#FEFECE" filter="url(#fklbqzc6nn6ei)" rx="82.7516" ry="18.9503" style="stroke:#A80036;stroke-width:1.5;"/><text fill="#000000" font-family="sans-serif" font-size="14" lengthAdjust="spacing" textLength="121" x="160.3716" y="238.6788">Clôturer un compte</text><ellipse cx="220.8716" cy="161.9503" fill="#FEFECE" filter="url(#fklbqzc6nn6ei)" rx="82.7516" ry="18.9503" style="stroke:#A80036;stroke-width:1.5;"/><text fill="#000000" font-family="sans-serif" font-size="14" lengthAdjust="spacing" textLength="121" x="160.3716" y="165.6788">Créditer un compte</text><ellipse cx="688.6217" cy="27.0003" fill="#FEFECE" filter="url(#fklbqzc6nn6ei)" rx="93.0017" ry="21.0003" style="stroke:#A80036;stroke-width:1.5;"/><text fill="#000000" font-family="sans-serif" font-size="14" lengthAdjust="spacing" textLength="145" x="616.1217" y="30.7289">Rendre inactif un client</text><ellipse cx="688.5135" cy="107.0787" fill="#FEFECE" filter="url(#fklbqzc6nn6ei)" rx="105.8935" ry="23.5787" style="stroke:#A80036;stroke-width:1.5;"/><text fill="#000000" font-family="sans-serif" font-size="14" lengthAdjust="spacing" textLength="174" x="601.5135" y="110.8072">Gérer les employés : CRUD</text><!--MD5=[047dc4deba4972a9e2a922c0c918fe63]
link G to Modifier infos client--><path d="M188.54,69.35 C145.41,74.47 71.34,90.76 41.62,142.5 C12.85,192.6 12.85,612.4 41.62,662.5 C59.94,694.4 97.04,708.76 132.77,714.85 " fill="none" id="G-to-Modifier infos client" style="stroke:#A80036;stroke-width:1.0;"/><polygon fill="#A80036" points="138.03,715.69,129.7696,710.3267,133.092,714.9051,128.5136,718.2275,138.03,715.69" style="stroke:#A80036;stroke-width:1.0;"/><!--MD5=[bb1fd70386f32c62593f78895a48b765]
link G to Créer un nouveau client--><path d="M188.54,69.35 C145.41,74.47 71.34,90.76 41.62,142.5 C17.22,184.99 17.22,541.01 41.62,583.5 C58.18,612.32 89.85,627.32 122.04,634.94 " fill="none" id="G-to-Créer un nouveau client" style="stroke:#A80036;stroke-width:1.0;"/><polygon fill="#A80036" points="127.21,636.09,119.3084,630.2109,122.3321,634.9918,117.5512,638.0155,127.21,636.09" style="stroke:#A80036;stroke-width:1.0;"/><!--MD5=[fd0563ec2fe32bf8dbc61470b1747653]
link G to Consulter un compte--><path d="M188.54,69.35 C145.41,74.47 71.34,90.76 41.62,142.5 C21.37,177.76 21.37,473.24 41.62,508.5 C59.35,539.37 94.59,554 129.18,560.64 " fill="none" id="G-to-Consulter un compte" style="stroke:#A80036;stroke-width:1.0;"/><polygon fill="#A80036" points="134.28,561.56,126.1478,556.0041,129.3618,560.6593,124.7067,563.8733,134.28,561.56" style="stroke:#A80036;stroke-width:1.0;"/><!--MD5=[753c74d11b8add8444c69c922e4758ed]
link G to Débiter un compte--><path d="M188.54,69.35 C145.41,74.47 71.34,90.76 41.62,142.5 C9.19,198.96 9.19,379.04 41.62,435.5 C60.33,468.07 98.61,482.36 135.03,488.22 " fill="none" id="G-to-Débiter un compte" style="stroke:#A80036;stroke-width:1.0;"/><polygon fill="#A80036" points="140.39,489.03,132.0844,483.7368,135.4455,488.2869,130.8955,491.648,140.39,489.03" style="stroke:#A80036;stroke-width:1.0;"/><!--MD5=[2f435067800a2f0c6bfd1ecda8cfb9c0]
link G to Créer un nouveau compte--><path d="M188.54,69.35 C145.41,74.47 71.34,90.76 41.62,142.5 C18.16,183.35 18.16,313.65 41.62,354.5 C57.51,382.15 87.24,397.24 118.01,405.31 " fill="none" id="G-to-Créer un nouveau compte" style="stroke:#A80036;stroke-width:1.0;"/><polygon fill="#A80036" points="122.95,406.55,115.1931,400.4812,118.1001,405.334,113.2474,408.241,122.95,406.55" style="stroke:#A80036;stroke-width:1.0;"/><!--MD5=[cbf63e71d6a3983fbdfb6cf9a6191b99]
link G to Effectuer un virement de compte à compte--><path d="M188.54,69.35 C145.41,74.47 71.34,90.76 41.62,142.5 C17.05,185.28 17.05,210.72 41.62,253.5 C54.08,275.19 74.65,290.05 97.5,300.23 " fill="none" id="G-to-Effectuer un virement de compte à compte" style="stroke:#A80036;stroke-width:1.0;"/><polygon fill="#A80036" points="102.1,302.2,95.4034,294.9781,97.5043,300.2304,92.252,302.3313,102.1,302.2" style="stroke:#A80036;stroke-width:1.0;"/><!--MD5=[ae287bd9ea68475f298ff68e5b184ce9]
link G to Clôturer un compte--><path d="M188.37,72.83 C127.45,85.28 6,118.47 41.62,180.5 C59.94,212.4 97.04,226.76 132.77,232.85 " fill="none" id="G-to-Clôturer un compte" style="stroke:#A80036;stroke-width:1.0;"/><polygon fill="#A80036" points="138.03,233.69,129.7696,228.3267,133.092,232.9051,128.5136,236.2275,138.03,233.69" style="stroke:#A80036;stroke-width:1.0;"/><!--MD5=[8a8eca99f7a0e19146d08dd7000928c0]
link G to Créditer un compte--><path d="M221.12,107.51 C221.12,117.5 221.12,127.49 221.12,137.48 " fill="none" id="G-to-Créditer un compte" style="stroke:#A80036;stroke-width:1.0;"/><polygon fill="#A80036" points="221.12,142.7,225.12,133.7,221.12,137.7,217.12,133.7,221.12,142.7" style="stroke:#A80036;stroke-width:1.0;"/><!--MD5=[d87793b47ca5afc4b6fa00bad2842c39]
reverse link G to C--><path d="M273.84,67 C319.83,67 386.41,67 430.34,67 " fill="none" id="G-backto-C" style="stroke:#A80036;stroke-width:1.0;"/><polygon fill="none" points="273.72,74,253.72,67,273.72,60,273.72,74" style="stroke:#A80036;stroke-width:1.0;"/><!--MD5=[f512478be54b27b3ad315b46c2a3d6ec]
link C to Rendre inactif un client--><path d="M522.67,58.42 C548.65,53.47 581.98,47.12 611.88,41.43 " fill="none" id="C-to-Rendre inactif un client" style="stroke:#A80036;stroke-width:1.0;"/><polygon fill="#A80036" points="617.03,40.45,607.4375,38.2175,612.1196,41.3921,608.9449,46.0742,617.03,40.45" style="stroke:#A80036;stroke-width:1.0;"/><!--MD5=[f6a9a8c6a0ab53e5639a3d65dec0bfaa]
link C to Gérer les employés : CRUD--><path d="M522.67,75.58 C545.93,80.01 575.09,85.57 602.4,90.77 " fill="none" id="C-to-Gérer les employés : CRUD" style="stroke:#A80036;stroke-width:1.0;"/><polygon fill="#A80036" points="607.48,91.73,599.3792,86.1285,602.5669,90.8017,597.8938,93.9894,607.48,91.73" style="stroke:#A80036;stroke-width:1.0;"/><!--MD5=[24abd1d96fb0d7f78d3756902a4d6e04]
@startuml usecase_v0_besoins
left to right direction
skinparam actorStyle awesome
"Guichetier" as G
"Chef d'agence" as C
:G: -> (Modifier infos client)
:G: -> (Créer un nouveau client)
:G: -> (Consulter un compte)
:G: -> (Débiter un compte)
:G: -> (Créer un nouveau compte)
:G: -> (Effectuer un virement de compte à compte)
:G: -> (Clôturer un compte)
:G: -> (Créditer un compte)

G <|- - C

:C: - -> (Rendre inactif un client)
:C: - -> (Gérer les employés : CRUD)

@enduml

PlantUML version 1.2022.0(Tue Jan 11 17:16:42 CET 2022)
(GPL source distribution)
Java Runtime: OpenJDK Runtime Environment
JVM: OpenJDK 64-Bit Server VM
Default Encoding: Cp1252
Language: fr
Country: FR
--></g></svg>