<?xml version="1.0" encoding="UTF-8" standalone="no"?><svg xmlns="http://www.w3.org/2000/svg" xmlns:xlink="http://www.w3.org/1999/xlink" contentScriptType="application/ecmascript" contentStyleType="text/css" height="1060px" preserveAspectRatio="none" style="width:880px;height:1060px;background:#FFFFFF;" version="1.1" viewBox="0 0 880 1060" width="880px" zoomAndPan="magnify"><defs><filter height="300%" id="f1phm4xbswf1nz" width="300%" x="-1" y="-1"><feGaussianBlur result="blurOut" stdDeviation="2.0"/><feColorMatrix in="blurOut" result="blurOut2" type="matrix" values="0 0 0 0 0 0 0 0 0 0 0 0 0 0 0 0 0 0 .4 0"/><feOffset dx="4.0" dy="4.0" in="blurOut2" result="blurOut3"/><feBlend in="SourceGraphic" in2="blurOut3" mode="normal"/></filter></defs><g><!--MD5=[1f67e8801336723dc06e2b95a190f0a5]
entity G--><ellipse cx="242.57" cy="171" fill="#FEFECE" filter="url(#f1phm4xbswf1nz)" rx="16" ry="16" style="stroke:#A80036;stroke-width:1.5;"/><path d="M242.57,191 C246.57,191 249.57,191 253.57,187 C261.57,187 269.57,195 269.57,203 L269.57,207 C269.57,211 265.57,215 261.57,215 L223.57,215 C219.57,215 215.57,211 215.57,207 L215.57,203 C215.57,195 223.57,187 231.57,187 C235.57,191 238.57,191 242.57,191 " fill="#FEFECE" filter="url(#f1phm4xbswf1nz)" style="stroke:#A80036;stroke-width:1.5;"/><text fill="#000000" font-family="sans-serif" font-size="14" lengthAdjust="spacing" textLength="65" x="210.07" y="231.0332">Guichetier</text><!--MD5=[16fab723be418f7eaf2ea4bd895a8e51]
entity C--><ellipse cx="516.07" cy="171" fill="#FEFECE" filter="url(#f1phm4xbswf1nz)" rx="16" ry="16" style="stroke:#A80036;stroke-width:1.5;"/><path d="M516.07,191 C520.07,191 523.07,191 527.07,187 C535.07,187 543.07,195 543.07,203 L543.07,207 C543.07,211 539.07,215 535.07,215 L497.07,215 C493.07,215 489.07,211 489.07,207 L489.07,203 C489.07,195 497.07,187 505.07,187 C509.07,191 512.07,191 516.07,191 " fill="#FEFECE" filter="url(#f1phm4xbswf1nz)" style="stroke:#A80036;stroke-width:1.5;"/><text fill="#000000" font-family="sans-serif" font-size="14" lengthAdjust="spacing" textLength="92" x="470.07" y="231.0332">Chef d'agence</text><ellipse cx="242.3216" cy="1029.9503" fill="#FEFECE" filter="url(#f1phm4xbswf1nz)" rx="82.7516" ry="18.9503" style="stroke:#A80036;stroke-width:1.5;"/><text fill="#000000" font-family="sans-serif" font-size="14" lengthAdjust="spacing" textLength="121" x="181.8216" y="1033.6788">Modifier infos client</text><ellipse cx="242.6402" cy="954.114" fill="#FEFECE" filter="url(#f1phm4xbswf1nz)" rx="96.0702" ry="21.614" style="stroke:#A80036;stroke-width:1.5;"/><text fill="#000000" font-family="sans-serif" font-size="14" lengthAdjust="spacing" textLength="152" x="166.6402" y="957.8426">Créer un nouveau client</text><ellipse cx="242.5361" cy="876.7932" fill="#FEFECE" filter="url(#f1phm4xbswf1nz)" rx="86.9661" ry="19.7932" style="stroke:#A80036;stroke-width:1.5;"/><text fill="#000000" font-family="sans-serif" font-size="14" lengthAdjust="spacing" textLength="131" x="177.0361" y="880.5217">Consulter un compte</text><ellipse cx="242.7587" cy="803.0377" fill="#FEFECE" filter="url(#f1phm4xbswf1nz)" rx="80.6887" ry="18.5377" style="stroke:#A80036;stroke-width:1.5;"/><text fill="#000000" font-family="sans-serif" font-size="14" lengthAdjust="spacing" textLength="116" x="184.0715" y="806.9661">Débiter un compte</text><ellipse cx="242.4149" cy="725.769" fill="#FEFECE" filter="url(#f1phm4xbswf1nz)" rx="101.8449" ry="22.769" style="stroke:#A80036;stroke-width:1.5;"/><text fill="#000000" font-family="sans-serif" font-size="14" lengthAdjust="spacing" textLength="165" x="159.9149" y="729.4975">Créer un nouveau compte</text><ellipse cx="242.3516" cy="634.7563" fill="#FEFECE" filter="url(#f1phm4xbswf1nz)" rx="149.2816" ry="32.2563" style="stroke:#A80036;stroke-width:1.5;"/><text fill="#000000" font-family="sans-serif" font-size="14" lengthAdjust="spacing" textLength="267" x="108.8516" y="638.4848">Effectuer un virement de compte à compte</text><ellipse cx="242.3216" cy="547.9503" fill="#FEFECE" filter="url(#f1phm4xbswf1nz)" rx="82.7516" ry="18.9503" style="stroke:#A80036;stroke-width:1.5;"/><text fill="#000000" font-family="sans-serif" font-size="14" lengthAdjust="spacing" textLength="121" x="181.8216" y="551.6788">Clôturer un compte</text><ellipse cx="242.3216" cy="474.9503" fill="#FEFECE" filter="url(#f1phm4xbswf1nz)" rx="82.7516" ry="18.9503" style="stroke:#A80036;stroke-width:1.5;"/><text fill="#000000" font-family="sans-serif" font-size="14" lengthAdjust="spacing" textLength="121" x="181.8216" y="478.6788">Créditer un compte</text><ellipse cx="242.581" cy="399.2022" fill="#FEFECE" filter="url(#f1phm4xbswf1nz)" rx="96.511" ry="21.7022" style="stroke:#A80036;stroke-width:1.5;"/><text fill="#000000" font-family="sans-serif" font-size="14" lengthAdjust="spacing" textLength="153" x="166.081" y="402.9307">Relevé mensuel en PDF</text><ellipse cx="242.5702" cy="305.9" fill="#FEFECE" filter="url(#f1phm4xbswf1nz)" rx="167.5002" ry="35.9" style="stroke:#A80036;stroke-width:1.5;"/><text fill="#000000" font-family="sans-serif" font-size="14" lengthAdjust="spacing" textLength="305" x="90.0702" y="309.6286">Gestion des prélèvements automatiques : CRUD</text><ellipse cx="745.5717" cy="27.0003" fill="#FEFECE" filter="url(#f1phm4xbswf1nz)" rx="93.0017" ry="21.0003" style="stroke:#A80036;stroke-width:1.5;"/><text fill="#000000" font-family="sans-serif" font-size="14" lengthAdjust="spacing" textLength="145" x="673.0717" y="30.7289">Rendre inactif un client</text><ellipse cx="745.7059" cy="108.1272" fill="#FEFECE" filter="url(#f1phm4xbswf1nz)" rx="113.6359" ry="25.1272" style="stroke:#A80036;stroke-width:1.5;"/><text fill="#000000" font-family="sans-serif" font-size="14" lengthAdjust="spacing" textLength="191" x="650.2059" y="111.8557">Gestion des employés : CRUD</text><ellipse cx="745.5436" cy="193.9947" fill="#FEFECE" filter="url(#f1phm4xbswf1nz)" rx="115.4736" ry="25.4947" style="stroke:#A80036;stroke-width:1.5;"/><text fill="#000000" font-family="sans-serif" font-size="14" lengthAdjust="spacing" textLength="195" x="648.0436" y="197.7232">Effectuer un débit exceptionnel</text><ellipse cx="745.6573" cy="274.1175" fill="#FEFECE" filter="url(#f1phm4xbswf1nz)" rx="83.5873" ry="19.1175" style="stroke:#A80036;stroke-width:1.5;"/><text fill="#000000" font-family="sans-serif" font-size="14" lengthAdjust="spacing" textLength="123" x="684.1573" y="277.846">Simuler un emprunt</text><ellipse cx="745.4114" cy="355.0683" fill="#FEFECE" filter="url(#f1phm4xbswf1nz)" rx="123.3414" ry="27.0683" style="stroke:#A80036;stroke-width:1.5;"/><text fill="#000000" font-family="sans-serif" font-size="14" lengthAdjust="spacing" textLength="212" x="639.4114" y="358.7968">Simuler une assurance d'emprunt</text><!--MD5=[047dc4deba4972a9e2a922c0c918fe63]
link G to Modifier infos client--><path d="M209.78,194.84 C162.72,198.08 78.07,212.04 45.07,269.5 C6,337.52 6,907.48 45.07,975.5 C66.74,1013.22 112.76,1027.34 154.94,1031.8 " fill="none" id="G-to-Modifier infos client" style="stroke:#A80036;stroke-width:1.0;"/><polygon fill="#A80036" points="160.06,1032.29,151.4778,1027.4582,155.0823,1031.818,150.7226,1035.4225,160.06,1032.29" style="stroke:#A80036;stroke-width:1.0;"/><!--MD5=[bb1fd70386f32c62593f78895a48b765]
link G to Créer un nouveau client--><path d="M209.78,194.84 C162.72,198.08 78.07,212.04 45.07,269.5 C10.37,329.91 10.37,836.09 45.07,896.5 C64.48,930.29 103.21,945.72 141.28,952.3 " fill="none" id="G-to-Créer un nouveau client" style="stroke:#A80036;stroke-width:1.0;"/><polygon fill="#A80036" points="146.4,953.14,138.1572,947.7497,141.4646,952.3389,136.8754,955.6463,146.4,953.14" style="stroke:#A80036;stroke-width:1.0;"/><!--MD5=[fd0563ec2fe32bf8dbc61470b1747653]
link G to Consulter un compte--><path d="M209.78,194.84 C162.72,198.08 78.07,212.04 45.07,269.5 C14.52,322.68 14.52,768.32 45.07,821.5 C66.04,858 109.75,872.63 150.72,877.8 " fill="none" id="G-to-Consulter un compte" style="stroke:#A80036;stroke-width:1.0;"/><polygon fill="#A80036" points="155.71,878.39,147.2398,873.3644,150.7443,877.805,146.3038,881.3095,155.71,878.39" style="stroke:#A80036;stroke-width:1.0;"/><!--MD5=[753c74d11b8add8444c69c922e4758ed]
link G to Débiter un compte--><path d="M209.78,194.84 C162.72,198.08 78.07,212.04 45.07,269.5 C18.56,315.65 18.56,702.35 45.07,748.5 C67.16,786.96 114.58,800.88 157.42,805.05 " fill="none" id="G-to-Débiter un compte" style="stroke:#A80036;stroke-width:1.0;"/><polygon fill="#A80036" points="162.62,805.51,154.0092,800.7294,157.6396,805.0676,153.3014,808.698,162.62,805.51" style="stroke:#A80036;stroke-width:1.0;"/><!--MD5=[2f435067800a2f0c6bfd1ecda8cfb9c0]
link G to Créer un nouveau compte--><path d="M209.78,194.84 C162.72,198.08 78.07,212.04 45.07,269.5 C23.05,307.85 23.05,629.15 45.07,667.5 C63.53,699.64 99.42,715.35 135.6,722.65 " fill="none" id="G-to-Créer un nouveau compte" style="stroke:#A80036;stroke-width:1.0;"/><polygon fill="#A80036" points="140.94,723.67,132.8549,718.0458,136.0296,722.7279,131.3475,725.9025,140.94,723.67" style="stroke:#A80036;stroke-width:1.0;"/><!--MD5=[cbf63e71d6a3983fbdfb6cf9a6191b99]
link G to Effectuer un virement de compte à compte--><path d="M209.78,194.84 C162.72,198.08 78.07,212.04 45.07,269.5 C12.2,326.73 12.2,509.27 45.07,566.5 C58.94,590.65 82.24,606.47 108.06,616.79 " fill="none" id="G-to-Effectuer un virement de compte à compte" style="stroke:#A80036;stroke-width:1.0;"/><polygon fill="#A80036" points="112.91,618.66,105.9315,611.7101,108.2396,616.8747,103.075,619.1827,112.91,618.66" style="stroke:#A80036;stroke-width:1.0;"/><!--MD5=[ae287bd9ea68475f298ff68e5b184ce9]
link G to Clôturer un compte--><path d="M209.78,194.84 C162.72,198.08 78.07,212.04 45.07,269.5 C20.28,312.66 20.28,450.34 45.07,493.5 C66.74,531.22 112.76,545.34 154.94,549.8 " fill="none" id="G-to-Clôturer un compte" style="stroke:#A80036;stroke-width:1.0;"/><polygon fill="#A80036" points="160.06,550.29,151.4778,545.4582,155.0823,549.818,150.7226,553.4225,160.06,550.29" style="stroke:#A80036;stroke-width:1.0;"/><!--MD5=[8a8eca99f7a0e19146d08dd7000928c0]
link G to Créditer un compte--><path d="M209.78,194.84 C162.72,198.08 78.07,212.04 45.07,269.5 C11.65,327.69 11.65,362.31 45.07,420.5 C66.74,458.22 112.76,472.34 154.94,476.8 " fill="none" id="G-to-Créditer un compte" style="stroke:#A80036;stroke-width:1.0;"/><polygon fill="#A80036" points="160.06,477.29,151.4778,472.4582,155.0823,476.818,150.7226,480.4225,160.06,477.29" style="stroke:#A80036;stroke-width:1.0;"/><!--MD5=[557a71f849638a723ee8349e4dcb68f0]
link G to Relevé mensuel en PDF--><path d="M209.78,194.84 C162.72,198.08 78.07,212.04 45.07,269.5 C29.13,297.25 29.13,313.75 45.07,341.5 C64.44,375.21 103.04,390.65 141.03,397.26 " fill="none" id="G-to-Relevé mensuel en PDF" style="stroke:#A80036;stroke-width:1.0;"/><polygon fill="#A80036" points="146.14,398.1,137.9099,392.6903,141.2065,397.2873,136.6095,400.5839,146.14,398.1" style="stroke:#A80036;stroke-width:1.0;"/><!--MD5=[14674b218159656cf1024bac7bc2cac8]
link G to Gestion des prélèvements automatiques : CRUD--><path d="M242.57,234.5 C242.57,244.49 242.57,254.48 242.57,264.47 " fill="none" id="G-to-Gestion des prélèvements automatiques : CRUD" style="stroke:#A80036;stroke-width:1.0;"/><polygon fill="#A80036" points="242.57,269.69,246.57,260.69,242.57,264.69,238.57,260.69,242.57,269.69" style="stroke:#A80036;stroke-width:1.0;"/><!--MD5=[d87793b47ca5afc4b6fa00bad2842c39]
reverse link G to C--><path d="M295.45,194 C345.83,194 421.54,194 469.62,194 " fill="none" id="G-backto-C" style="stroke:#A80036;stroke-width:1.0;"/><polygon fill="none" points="295.25,201,275.25,194,295.25,187,295.25,201" style="stroke:#A80036;stroke-width:1.0;"/><!--MD5=[f512478be54b27b3ad315b46c2a3d6ec]
link C to Rendre inactif un client--><path d="M540.98,153.39 C559.71,124.87 588.22,87.88 622.07,65 C636.45,55.28 653.43,47.96 670.09,42.48 " fill="none" id="C-to-Rendre inactif un client" style="stroke:#A80036;stroke-width:1.0;"/><polygon fill="#A80036" points="675.25,40.83,665.4587,39.7665,670.4884,42.3554,667.8994,47.3851,675.25,40.83" style="stroke:#A80036;stroke-width:1.0;"/><!--MD5=[483beeddb04ace9efad711e97d9200c1]
link C to Gestion des employés : CRUD--><path d="M562.09,174.97 C580.59,167.31 602.28,158.52 622.07,151 C640.08,144.16 659.72,137.09 677.89,130.71 " fill="none" id="C-to-Gestion des employés : CRUD" style="stroke:#A80036;stroke-width:1.0;"/><polygon fill="#A80036" points="682.97,128.93,673.1536,128.1317,678.2514,130.5837,675.7994,135.6815,682.97,128.93" style="stroke:#A80036;stroke-width:1.0;"/><!--MD5=[f9636ed834872e1e6a19066926a7b367]
link C to Effectuer un débit exceptionnel--><path d="M562.29,194 C580.48,194 602.4,194 624.64,194 " fill="none" id="C-to-Effectuer un débit exceptionnel" style="stroke:#A80036;stroke-width:1.0;"/><polygon fill="#A80036" points="629.69,194,620.69,190,624.69,194,620.69,198,629.69,194" style="stroke:#A80036;stroke-width:1.0;"/><!--MD5=[496e829611927cebd81f12cfce1a1039]
link C to Simuler un emprunt--><path d="M562.19,213.58 C580.61,221.28 602.21,229.95 622.07,237 C643.1,244.46 666.49,251.77 687.15,257.89 " fill="none" id="C-to-Simuler un emprunt" style="stroke:#A80036;stroke-width:1.0;"/><polygon fill="#A80036" points="692.06,259.33,684.5575,252.9494,687.2639,257.9169,682.2964,260.6232,692.06,259.33" style="stroke:#A80036;stroke-width:1.0;"/><!--MD5=[af3aafa114a7ed0fa6583e8e780487fc]
link C to Simuler une assurance d'emprunt--><path d="M545.76,234.61 C564.95,259.27 592.12,289.79 622.07,310 C634.81,318.6 649.4,325.8 663.97,331.74 " fill="none" id="C-to-Simuler une assurance d'emprunt" style="stroke:#A80036;stroke-width:1.0;"/><polygon fill="#A80036" points="668.9,333.7,662.0106,326.6618,664.2527,331.8554,659.0592,334.0975,668.9,333.7" style="stroke:#A80036;stroke-width:1.0;"/><!--MD5=[4924070a5e69991a98cd930daea1ae2a]
@startuml usecase_v0_besoins
left to right direction
skinparam actorStyle awesome
"Guichetier" as G
"Chef d'agence" as C
:G: -> (Modifier infos client)
:G: -> (Créer un nouveau client)
:G: -> (Consulter un compte)
:G: -> (Débiter un compte)
:G: -> (Créer un nouveau compte)
:G: -> (Effectuer un virement de compte à compte)
:G: -> (Clôturer un compte)
:G: -> (Créditer un compte)
:G: -> (Relevé mensuel en PDF)
:G: -> (Gestion des prélèvements automatiques : CRUD)

G <|- - C

:C: - -> (Rendre inactif un client)
:C: - -> (Gestion des employés : CRUD)
:C: - -> (Effectuer un débit exceptionnel)
:C: - -> (Simuler un emprunt)
:C: - -> (Simuler une assurance d'emprunt)

@enduml

PlantUML version 1.2022.0(Tue Jan 11 17:16:42 CET 2022)
(GPL source distribution)
Java Runtime: Java(TM) SE Runtime Environment
JVM: Java HotSpot(TM) 64-Bit Server VM
Default Encoding: Cp1252
Language: fr
Country: FR
--></g></svg>